<svg t="1720467023583" class="icon" viewBox="0 0 1176 1024" version="1.1" xmlns="http://www.w3.org/2000/svg" p-id="6129" data-darkreader-inline-fill="" width="200" height="200"><path d="M1168.47711 367.449794L1001.082337 81.988079a52.526364 52.526364 0 0 0-71.6442-18.765704L25.88197 591.596515A52.453003 52.453003 0 0 0 7.116266 663.182027l167.380101 285.43237a52.511692 52.511692 0 0 0 71.585511 18.692343l903.556167-528.344796a52.232921 52.232921 0 0 0 18.824392-71.51215z m-36.680422 40.847317l-903.658872 528.403485a16.638239 16.638239 0 0 1-22.800551-5.971573L37.957165 645.20862A16.667584 16.667584 0 0 1 44.046115 622.378725L947.572937 94.004585a16.608895 16.608895 0 0 1 22.756534 6.015589l167.468134 285.505732a16.931683 16.931683 0 0 1-6.074278 22.756533zM375.827866 204.441999l13.454379 35.726731 20.174232-32.381476 38.147639-1.731316-24.605227-29.212288 10.006419-36.680422-35.213205 14.40807-32.044017-20.951857 2.817057 38.147638-29.813847 23.666208 37.07657 9.082073zM604.52296 107.50298L587.488572 73.360844 570.776972 107.708391l-37.810179 5.868867 27.4663 26.409904-6.176983 37.54608 33.745988-17.958735 33.922054 17.606603-6.661164-37.619441 27.114167-26.776708z m323.624026 573.491059l-29.344338-24.282439-1.467217 38.059606-32.278771 20.306281 35.932141 13.204952 9.434205 36.929849 23.607519-29.989913 38.147639 2.391564L950.786142 705.966071l14.187987-35.286566z m-128.645576 147.499313l-13.204951-35.829436-20.541037 32.278771-38.059605 1.467217 24.3558 29.344337-10.270518 36.680422 35.477304-14.041265 31.794589 21.318661-2.508941-38.147639L836.343226 837.912884z m-229.575424 95.369096L586.916358 958.092618l16.990371-34.259514 37.722146-5.355342-27.275562-26.703347 6.499771-37.575424L586.916358 871.820266l-33.745988-17.812013 6.338376 37.54608-27.495644 26.674003z m-318.767538-576.029344l29.212288 24.663916 1.790005-38.147639 32.440165-20.188904-35.726731-13.381018-9.155433-37.091243L245.847123 293.443375l-38.147638-2.714352 21.010545 31.838607-14.422742 35.374598 36.827144-10.050435zM111.200631 507.657038C112.843914 346.263182 196.871424 189.476387 346.29279 102.147639s327.189363-83.763411 469.054563-6.294361L851.015395 75.018799A511.237047 511.237047 0 0 0 91.906729 382.708849a506.468592 506.468592 0 0 0-16.418157 145.753324L111.215303 507.657038z m950.213663 8.509858c-1.467217 161.467217-85.494727 318.224668-234.886749 405.524071s-327.189363 83.792756-469.025218 6.323705l-35.712058 20.863824A510.826227 510.826227 0 0 0 1080.693524 641.173773a505.955066 505.955066 0 0 0 16.418157-145.826685zM445.8728 272.16873a276.70243 276.70243 0 0 1 132.651077-37.810179l55.152682-32.278771a313.867033 313.867033 0 0 0-340.966529 199.482806l55.108666-32.278771a275.983494 275.983494 0 0 1 98.054104-97.159102z m281.001375 479.471802A275.558001 275.558001 0 0 1 594.252442 789.509399l-55.108666 32.278772a313.837689 313.837689 0 0 0 340.893169-199.497479l-55.079322 32.278772a276.614397 276.614397 0 0 1-98.083448 97.056396z m0 0" fill="#f80e81" p-id="6130" style="--darkreader-inline-fill: #c20662;" data-darkreader-inline-fill=""></path><path d="M321.350104 678.617148l-22.008253-20.423659c8.407153-41.228794 7.966988-83.8221-1.775333-127.471802l29.22696-2.376891a298.857405 298.857405 0 0 1 6.42641 61.344337l94.694177 164.005502-25.118753 14.496103-73.492893-127.281064c-2.186153 12.500688-4.929849 25.03072-7.952315 37.707474z m69.634112-126.518111c-2.09812-3.624026-3.946813-7.336084-6.030261-11.004126l-25.808345-44.691426 24.399817-14.085282L409.383116 527.009629c2.23017 3.85878 4.093535 7.629528 6.044934 11.004126l78.246675-45.175607 14.011921 24.150389-47.83127 27.613022 64.161394 111.112334c1.951398 3.374599 4.607061 4.093535 7.996332 2.142136l17.870702-10.270518c1.936726-1.115085 2.787712-3.535993 3.330582-7.071985-0.088033-3.491976-5.443375-15.537827-16.286107-36.005502l26.79138-5.472719c12.647409 27.480972 18.912425 44.471343 18.032095 50.765704-1.467217 6.96928-5.619441 12.588721-12.339294 17.107748L538.498201 684.706098c-14.980284 8.641907-26.820724 4.856488-35.756075-10.607978l-66.787712-115.69005-7.98166 4.607061Q473.940658 662.961944 450.905354 740.064191l-28.317286-5.54608c14.261348-45.586428 8.113709-98.083448-19.073819-157.417698l-45.894544 26.483264-13.953233-24.15039z m81.019716-76.089867l-7.248051 27.055479c-14.789546-4.988537-33.745988-8.803301-56.399817-11.238881l7.262724-24.795965a275.337918 275.337918 0 0 1 56.414488 8.979367zM704.880594 387.345254l22.316369 38.646493-25.602935 14.774874L679.351021 402.090784l-0.718937 0.425493c-3.609354 29.447043-20.541036 63.090326-50.824392 100.519028L600.121309 488.069693c26.101788-27.304906 42.945438-50.560293 50.692343-69.516736l-63.295735 36.5337-13.52774-23.475469 91.789088-52.995874-7.952316-13.762494q-30.298028 19.425951-65.819349 39.937643l-19.528656-17.063732q92.038514-53.157267 149.2453-101.311325l24.458505 13.909216a760.01834 760.01834 0 0 1-63.721229 48.051352l8.891335 15.493811 88.649243-51.176525 13.52774 23.47547-60.155892 34.714351c22.624484 2.391564 50.046768-0.88033 82.589638-10.270518l2.318202 30.224668c-45.483723 8.231087-82.927098 6.983952-112.212746-4.137552z m-44.51536 118.125631l-13.527739-23.47547 128.014672-73.903714 6.837231 11.84044 5.091242 24.429161 42.021091-24.267767 6.705181 11.591013c12.750115 29.344337 18.751032 48.110041 17.885374 56.663916a26.160477 26.160477 0 0 1-9.082072 19.411279c-8.231087 6.367721-22.551123 15.596515-43.048143 28.082531l-20.761119-19.235213c14.041265-7.468134 26.263182-14.202659 36.885832-20.335626a12.456671 12.456671 0 0 0 5.868868-7.600183c1.159101-3.565337-0.821641-13.703806-6.323705-30.488767L768.85125 485.927556l-8.539202-38.220999-45.483723 26.219165c18.281522 42.270518 9.610271 85.274645-25.969739 129.643283l-26.409904-14.026593c31.882623-35.213205 41.448877-69.340669 28.742779-101.942229z" fill="#f80e81" p-id="6131" style="--darkreader-inline-fill: #c20662;" data-darkreader-inline-fill=""></path></svg>